<svg xmlns="http://www.w3.org/2000/svg" xmlns:xlink="http://www.w3.org/1999/xlink" width="14" height="12" viewBox="0 0 14 12">
  <defs>
    <polygon id="icon_cart-a" points="0 9 0 0 14 0 14 9"/>
  </defs>
  <g fill="none" fill-rule="evenodd">
    <path fill="#666" d="M6.5 10.75C6.5 11.44 5.94 12 5.25 12 4.56 12 4 11.44 4 10.75 4 10.06 4.56 9.5 5.25 9.5 5.94 9.5 6.5 10.06 6.5 10.75M12 10.75C12 11.44 11.44 12 10.75 12 10.06 12 9.5 11.44 9.5 10.75 9.5 10.06 10.06 9.5 10.75 9.5 11.44 9.5 12 10.06 12 10.75"/>
    <mask id="icon_cart-b" fill="#fff">
      <use xlink:href="#icon_cart-a"/>
    </mask>
    <path fill="#666" d="M13.8945,2.1924 C13.7995,2.0704 13.6545,2.0004 13.4995,2.0004 L3.3905,2.0004 L2.9855,0.3794 C2.9285,0.1524 2.7215,0.0084 2.4995,0.0084 L2.4995,0.0004 L0.4995,0.0004 L0.4995,0.0024 C0.4965,0.0024 0.4935,0.0004 0.4895,0.0004 C0.2125,0.0054 -0.0055,0.2344 -0.0005,0.5104 C0.0055,0.7824 0.2285,0.9974 0.4995,0.9984 L0.4995,1.0004 L2.1095,1.0004 L4.0145,8.6214 C4.0715,8.8484 4.2755,9.0004 4.4995,9.0004 L11.4995,9.0004 C11.7765,9.0004 11.9995,8.7764 11.9995,8.5004 C11.9995,8.2234 11.7765,8.0004 11.4995,8.0004 L4.8905,8.0004 L4.6405,7.0004 L12.4995,7.0004 C12.7295,7.0004 12.9295,6.8434 12.9855,6.6214 L13.9855,2.6214 C14.0225,2.4714 13.9895,2.3134 13.8945,2.1924" mask="url(#icon_cart-b)"/>
  </g>
</svg>
